<?xml version="1.0" encoding="UTF-8"?>
<svg id="Layer_1" data-name="Layer 1" xmlns="http://www.w3.org/2000/svg" xmlns:xlink="http://www.w3.org/1999/xlink" viewBox="0 0 343.78 343.78">
  <defs>
    <style>
      .cls-1 {
        fill: #ec7b23;
      }

      .cls-2 {
        fill: url(#linear-gradient-2);
      }

      .cls-3 {
        fill: #a01d20;
      }

      .cls-4 {
        fill: url(#radial-gradient-5);
      }

      .cls-5 {
        fill: #a61e22;
      }

      .cls-6 {
        fill: url(#radial-gradient);
      }

      .cls-7 {
        fill: url(#radial-gradient-3);
      }

      .cls-8 {
        fill: url(#radial-gradient-2);
      }

      .cls-9 {
        fill: url(#New_Gradient_Swatch_1-2);
      }

      .cls-10 {
        fill: url(#radial-gradient-4);
      }

      .cls-11 {
        fill: url(#radial-gradient-6);
      }

      .cls-12 {
        fill: url(#linear-gradient);
      }

      .cls-13 {
        fill: url(#New_Gradient_Swatch_1);
      }
    </style>
    <radialGradient id="New_Gradient_Swatch_1" data-name="New Gradient Swatch 1" cx="170.44" cy="252.26" fx="170.44" fy="252.26" r="101.28" gradientUnits="userSpaceOnUse">
      <stop offset=".13" stop-color="#f68724"/>
      <stop offset=".19" stop-color="#ed7b23"/>
      <stop offset=".52" stop-color="#c34821"/>
      <stop offset=".78" stop-color="#a92820"/>
      <stop offset=".91" stop-color="#a01d20"/>
    </radialGradient>
    <radialGradient id="New_Gradient_Swatch_1-2" data-name="New Gradient Swatch 1" r="101.28" xlink:href="#New_Gradient_Swatch_1"/>
    <radialGradient id="radial-gradient" cx="171.11" cy="180.09" fx="171.11" fy="180.09" r="79.49" gradientUnits="userSpaceOnUse">
      <stop offset=".13" stop-color="#f68724"/>
      <stop offset=".17" stop-color="#ed7b23"/>
      <stop offset=".41" stop-color="#c34821"/>
      <stop offset=".59" stop-color="#a92820"/>
      <stop offset=".69" stop-color="#a01d20"/>
    </radialGradient>
    <radialGradient id="radial-gradient-2" cx="170.59" cy="83.55" fx="170.59" fy="83.55" r="176.6" xlink:href="#radial-gradient"/>
    <radialGradient id="radial-gradient-3" cx="177.02" cy="116.56" fx="177.02" fy="116.56" r="47.11" gradientUnits="userSpaceOnUse">
      <stop offset=".04" stop-color="#eb6d24"/>
      <stop offset="1" stop-color="#a61e22"/>
    </radialGradient>
    <radialGradient id="radial-gradient-4" cx="165.32" cy="114.19" fx="165.32" fy="114.19" r="89.38" xlink:href="#radial-gradient"/>
    <radialGradient id="radial-gradient-5" cx="223.42" cy="79.69" fx="223.42" fy="79.69" r="129.88" xlink:href="#radial-gradient"/>
    <radialGradient id="radial-gradient-6" cx="130.43" cy="92.45" fx="130.43" fy="92.45" r="108.82" xlink:href="#radial-gradient"/>
    <linearGradient id="linear-gradient" x1="171.89" y1="343.78" x2="171.89" y2="0" gradientUnits="userSpaceOnUse">
      <stop offset=".03" stop-color="#ec8623"/>
      <stop offset=".51" stop-color="#e35d26"/>
      <stop offset=".97" stop-color="#ec8623"/>
    </linearGradient>
    <linearGradient id="linear-gradient-2" x1="171.89" y1="16.15" x2="171.89" y2="327.63" gradientUnits="userSpaceOnUse">
      <stop offset=".13" stop-color="#f68724"/>
      <stop offset=".19" stop-color="#ed7b23"/>
      <stop offset=".52" stop-color="#c34821"/>
      <stop offset=".78" stop-color="#a92820"/>
      <stop offset=".91" stop-color="#a01d20"/>
    </linearGradient>
  </defs>
  <polygon class="cls-13" points="133.94 261.01 125.38 246.46 117.5 246.46 129.91 267.52 129.91 279.21 137.33 279.21 137.33 267.61 149.79 246.46 142.51 246.46 133.94 261.01"/>
  <path class="cls-13" d="M196.8,246.46l-14.49,32.75h7.71l2.88-7.02h15.1l2.88,7.02h7.9l-14.54-32.75h-7.43ZM195.31,266.44l5.16-12.54,5.16,12.54h-10.31Z"/>
  <path class="cls-13" d="M180.15,258.35c0-7.34-5.28-11.88-13.71-11.88h-13.67v32.75h7.31v-9.12h6.72l6.09,9.12h7.85l-7.08-10.53c4.1-1.82,6.49-5.43,6.49-10.34ZM166.04,264.05h-5.95v-11.42h5.95c4.47,0,6.72,2.11,6.72,5.71s-2.25,5.71-6.72,5.71Z"/>
  <path class="cls-13" d="M239.85,260.76s0,0,0,.02c0,0,0,.02,0,.02,0,.06-.01.11-.02.17,0,.02,0,.04-.01.06,0,0,0,.02-.01.03,0,0,0,0,0,.01-.03.12-.08.24-.14.35,0,0,0,0,0,0,0,0,0,.01,0,.02-.07.09-.12.2-.18.29-.04.06-.08.11-.13.17-.02.02-.03.04-.05.06-.04.04-.07.07-.1.11,0,0-.02,0-.02.01-.01.02-.03.03-.05.05-.05.05-.09.11-.14.16-.11.13-.24.25-.37.37-.12.12-.25.23-.38.35,0,0-.02.02-.02.02,0,0,0,0,0,0,0,0-.02.02-.03.03,0,0-.01.01-.02.02,0,.01-.02.02-.03.03-.01.01-.02.03-.04.04-.09.09-.17.17-.26.26-.03.03-.06.06-.09.08,0,0,0,0,0,0-.02.03-.05.05-.08.07,0,0-.02.02-.03.02-.05.07-.1.14-.17.2-.16.15-.32.29-.47.45-.02.03-.05.05-.08.07-.02.03-.05.06-.08.08,0,0,0,0,0,0-.02.03-.05.06-.08.09-.03.04-.05.08-.09.11-.04.04-.08.07-.12.1,0,0-.02.01-.02.02-.02.02-.04.03-.06.05,0,0-.02.02-.03.02,0,0-.02.02-.02.03-.02.02-.03.05-.05.07-.03.04-.07.06-.11.09-.02.03-.04.05-.06.07,0,0-.01.02-.02.03-.02.03-.03.04-.05.06-.03.03-.06.05-.1.08-.02.03-.04.06-.07.09-.05.05-.11.1-.16.15-.11.1-.22.21-.32.31-.08.09-.17.17-.27.25-.05.04-.09.07-.14.1l9.5,13.09h8.75l-13.47-18.46Z"/>
  <path class="cls-9" d="M229.42,246.46h-8.61l12.05,16.61s.05-.07.07-.09c.05-.05.1-.09.16-.14.13-.1.24-.22.35-.35.06-.07.13-.13.2-.2.07-.06.12-.13.19-.19.02-.02.04-.02.06-.03.03-.04.07-.07.11-.1.02-.04.04-.07.07-.1.12-.12.23-.24.35-.36.07-.06.14-.12.21-.18.01-.02.03-.03.04-.04,0-.01.02-.02.03-.03,0,0,0-.01.01-.02.05-.05.08-.1.13-.15.03-.02.06-.04.09-.07.02-.02.04-.03.06-.05.02-.03.04-.05.06-.07.02-.03.06-.08.07-.1.02-.02.04-.03.06-.05,0,0,.02-.01.03-.02.01-.01.02-.02.04-.03.02-.03.04-.05.07-.07.01-.01.02-.03.04-.04,0,0,0,0,0,0,0,0,0,0,0,0,.14-.18.29-.36.46-.52.1-.1.21-.18.32-.26.02-.03.06-.05.09-.07,0,0,0,0,.01-.01.03-.05.07-.09.11-.13.02-.03.03-.06.06-.09.18-.18.37-.34.58-.48.11-.08.24-.14.37-.18.02,0,.03,0,.05,0,0,0,0,0,0,0,.03-.02.07-.02.1-.03.04-.02.09-.03.14-.04.01,0,.03-.01.04-.01,0,0,0,0,0,0,.02,0,.04-.01.06-.01,0,0,.01,0,.02,0,.06-.02.12-.04.2-.04.03,0,.05.01.07.02,0,0,0,0,.01,0,.01,0,.02,0,.04,0,.02,0,.03-.01.05-.01.05,0,.1.02.14.03,0,0,0,0,.01,0,.01,0,.02.01.04.01,0,0,.01,0,.02,0,0,0,0,0,0,0,.02,0,.04.01.06.02l-9.02-12.36Z"/>
  <path class="cls-13" d="M102.99,246.46h-14.18v32.75h7.58v-9.03h6.6c8.75,0,14.22-4.54,14.22-11.84s-5.47-11.88-14.22-11.88ZM102.57,264.01h-6.18v-11.37h6.18c4.63,0,6.97,2.11,6.97,5.71s-2.34,5.66-6.97,5.66Z"/>
  <path class="cls-3" d="M242.03,256.58c-1.67-1.67-4.38-1.67-6.05,0l-5.96,5.96c-1.67,1.67-1.67,4.38,0,6.05,1.67,1.67,4.38,1.67,6.05,0l5.96-5.96c1.67-1.67,1.67-4.38,0-6.05ZM239.85,260.79s0,.01,0,.02c-.03.27-.14.53-.29.77-.03.05-.06.1-.09.15-.04.06-.08.11-.13.17-.01.01-.02.03-.03.04l-.11.11s-.01.01-.02.02c0,0,0,0,0,0l-.03.03s0,0,0,0l-.07.07s-.06.07-.1.11c-.11.13-.24.25-.37.37-.07.07-.14.13-.21.2l-.58.58s-.02.02-.03.03l-.02.02s-.04.04-.06.06c0,0,0,0,0,0l-.17.17s-.05.06-.07.09c-.12.11-.24.23-.35.34l-.12.12s-.02.02-.03.03l-.03.03s-.05.06-.08.08h0s-.01.02-.02.03c0,0,0,0,0,0-.02.02-.04.04-.06.06h0s-.05.08-.08.11c-.04.04-.08.07-.12.1,0,0-.01.01-.02.02h0s-.02.03-.03.04c0,0-.02.02-.02.02h0s-.02.03-.03.04h-.01s-.03.06-.04.07c-.02.03-.05.05-.08.07l-.04.04s-.04.04-.05.05c0,0-.01.02-.02.03-.02.03-.03.04-.05.06-.02.03-.06.05-.09.07l-.03.03s-.04.05-.06.08c-.05.05-.11.1-.16.15-.05.05-.1.1-.16.15l-.26.26s-.08.07-.12.1c-.02.01-.03.03-.04.04-.02.02-.05.03-.07.05-.02.02-.05.04-.07.05-.03.02-.07.04-.1.05-.71.4-1.63.31-2.24-.3-.73-.73-.73-1.92,0-2.65l.07-.07s0,0,0,0c.04-.06.09-.12.13-.18.05-.05.1-.09.16-.14.13-.1.24-.22.35-.35.06-.07.13-.13.2-.2.07-.06.12-.13.19-.19.01-.01.03-.02.05-.03h.01s.03-.04.04-.06l.09-.09s.02-.04.04-.06c.12-.12.23-.24.35-.36.05-.05.11-.09.16-.14l.06-.06s0,0,0,0l.02-.02s.02-.02.02-.02l.03-.03s0,0,0,0c.05-.05.08-.1.13-.15.02-.02.05-.03.07-.05l.03-.03s.02-.02.02-.02l.04-.04s.02-.02.02-.02l.04-.04s.05-.06.06-.07c.02-.02.04-.03.06-.05,0,0,0,0,0,0l.07-.07s0,0,0,0l.03-.03s.02-.02.02-.02l.09-.09c.13-.16.26-.31.4-.46.11-.1.22-.2.34-.29l.12-.12s.01-.01.02-.02l.08-.08s.02-.04.03-.05c.03-.03.07-.05.1-.08l.16-.16c.31-.31.69-.46,1.09-.51,0,0,0,0,0,0,0,0,0,0,0,0,.03,0,.05,0,.08,0,.04-.01.09-.03.14-.03.03,0,.05.01.07.01,0,0,0,0,0,0,0,0,0,0,0,0,0,0,0,0,0,0,.02,0,.05,0,.07,0,0,0,0,0,.01,0,.01,0,.02,0,.03,0,.03,0,.06.02.1.03,0,0,.02,0,.03,0,.07,0,.12.03.18.06.3.08.59.21.83.45.41.41.58.96.53,1.49,0,0,0,.01,0,.02Z"/>
  <path class="cls-3" d="M232.47,272.01l-3.46,3.46c-1.35,1.35-3.55,1.35-4.9,0-1.35-1.35-1.35-3.55,0-4.9l2.16-2.16v-3.81l-4.59,4.59c-2.4,2.4-2.4,6.3,0,8.71h0c2.4,2.4,6.3,2.4,8.71,0l5.9-5.9h-3.81Z"/>
  <path class="cls-3" d="M250.37,247.92h0c-2.4-2.4-6.3-2.4-8.71,0l-5.17,5.17h3.81l2.73-2.73c1.35-1.35,3.55-1.35,4.9,0,1.35,1.35,1.35,3.55,0,4.9l-1.91,1.91v3.81l4.35-4.35c2.4-2.4,2.4-6.3,0-8.71Z"/>
  <path class="cls-6" d="M151.33,216.09h40.55l6.9,12.96h-54.25l6.8-12.96ZM190.24,213l-6.9-12.96h-10.11v12.96h17ZM152.95,213h16.97v-12.96h-10.16l-6.8,12.96ZM181.77,197.09l-10.31-19.36-10.16,19.36h20.47ZM147.39,216.09h-14.69l-8.65,12.96h16.31l7.03-12.96ZM149.07,213l19.16-35.31c-5.96,2.3-11.78,2.84-11.78,2.84l-21.68,32.47h14.3ZM210.59,216.09h-14.37l7.09,12.96h15.57l-8.29-12.96ZM194.53,213h14.08l-27.79-43.44s-2.02,2.52-7.07,5.46l20.78,37.98Z"/>
  <path class="cls-8" d="M121.55,73.94c13.81-11.13,31.12-17.86,49.99-17.86s35.56,6.49,49.14,17.27c-.13,2.4-.5,5.59-1.46,9.08-12.75-11.43-29.32-18.47-47.67-18.47s-35.69,7.38-48.69,19.27c-.48-2.63-1-5.99-1.3-9.28ZM249.59,116.76c-1.26,4.75-3.6,8.6-5.55,11.2.68,4.16,1.06,8.42,1.06,12.74,0,28.2-15.11,51.79-37.85,63.88,1.26,2.03,2.82,4.53,4.2,6.67,24.94-13.5,41.52-39.55,41.52-70.56,0-8.26-1.18-16.3-3.38-23.94ZM135.99,204.82c-23.11-11.96-38.66-35.5-38.66-63.83,0-4.12.34-8.17.97-12.15-2.7-4.83-4.3-9.17-5.22-12.48-2.36,7.85-3.63,16.13-3.63,24.63,0,30.96,16.84,56.84,41.91,70.27,1.45-2.02,3.26-4.54,4.63-6.44Z"/>
  <path class="cls-1" d="M162.12,111.63c1.55-2.45,2.94-4.21,2.94-4.21,0,0-6.33,1.55-11.56-.74,1.67,2.63,5.24,4.58,8.62,4.95Z"/>
  <path class="cls-7" d="M189.87,108.74c-.86-1.05-1.9-2-3.05-2.84-3.42-.65-8.77-.04-13.81,2.62-6.41,3.39-9.42,12.96-3.39,19.51,6.04,6.55,13.55,7.66,12.66,18.85-.81,10.23-8.32,20.69-14.83,27.93,9.02-2.89,17.04-9.57,20.13-17.55,3.53-9.13,1.84-20.1-2.43-24.66-4.27-4.56-10.31-9.35-10.09-14.5.22-5.15,7.88-10.82,14.8-9.35Z"/>
  <path class="cls-10" d="M175.07,118.09c.22-5.15,7.88-10.82,14.8-9.35-5.15-6.33-16.49-9.06-22.75-6.33-6.26,2.72-12.15.74-14.21-3.9,1.62,9.35,12.15,8.91,12.15,8.91,0,0-5.45,6.92-6.85,12.37-1.4,5.45-2.65,10.9-.74,18.26,1.91,7.36,3.9,12.59,3.9,19.81s-3.98,12.22-9.35,15.98c-5.37,3.75-10.45,11.26-10.9,13.25,5.37-7.66,12.3-9.35,22.38-11.26,10.55-2,20.54-9.42,24.08-18.55,3.53-9.13,1.84-20.1-2.43-24.66-4.27-4.56-10.31-9.35-10.09-14.5ZM172.35,105.69c0-.87.81-1.58,1.8-1.58s1.8.71,1.8,1.58-.81,1.58-1.8,1.58-1.8-.71-1.8-1.58Z"/>
  <path class="cls-5" d="M170.55,128.98c1.01,1.55,2.31,3.29,3.86,4.72,3.75,3.46,5.82,7.8,4.79,17.23-.9,8.27-9.24,18.76-13.65,24.43.64-.16,1.28-.35,1.92-.55h0c6.51-7.24,14.02-17.7,14.83-27.93.84-10.63-5.89-12.16-11.74-17.9Z"/>
  <path class="cls-4" d="M186.85,128.99s4.42,3.31,6.11,11.34c1.69,8.03-1.84,17.52-2.58,18.77,5.74.52,22.68-1.03,29.52-9.57-5.96,3.39-16.71.88-19.81-1.33,10.75,2.36,20.76-1.62,28.94-6.85,8.17-5.23,15.39-18.85,16.05-28.13-5.52,10.6-20.62,20.39-38.58,22.16,15.54-3.61,31-13.92,36.67-27.76,5.67-13.84,2.21-27.98-2.21-33.21,2.21,11.26-3.02,21.57-9.35,30.04s-17.6,15.09-22.6,18.04c11.41-9.35,23.56-19.73,24.81-37.48,1.25-17.74-8.03-27.98-11.78-32.32,4.2,8.17,3.9,15.46,2.14,25.7-1.77,10.23-9.2,23.63-15.61,31.73-6.41,8.1-21.72,18.85-21.72,18.85Z"/>
  <path class="cls-11" d="M122.21,149.83c7.58,5.74,14.95,9.65,25.92,9.42,5.33-.11,9.91-1.38,13.21-2.66-.22-6.57-2.06-11.62-3.86-18.54-.97-3.71-1.12-6.94-.87-9.93-6.02-3.01-19.76-11.14-28.81-26.08-11.85-19.58-12.15-39.83-7.58-49.26-6.48,8.1-14.36,18.19-12.3,33.13,2.06,14.95,16.79,29.97,27.24,37.77-10.45-5.37-21.35-15.46-27.98-25.33-6.63-9.87-5.82-22.31-5.74-24.22-2.5,2.5-6.77,9.2-5.45,23.41,1.33,14.21,10.01,26.06,41.38,38.43-17.3-2.5-36.45-11.56-41.16-24.59,2.14,13.11,10.97,25.4,20.69,31.51s22.01,6.41,24.81,5.6c-3.39,2.43-16.57,2.5-19.51,1.33Z"/>
  <path class="cls-5" d="M208.65,123.03c-7.01,3.62-13.75,11.93-16.22,15.2.2.66.38,1.36.54,2.1,1.69,8.03-1.84,17.52-2.58,18.77.5.04,1.09.07,1.74.08,2.61-9.39,8.17-24.65,16.52-36.16Z"/>
  <path class="cls-5" d="M161.34,156.59c-.17-5.24-1.38-9.53-2.78-14.56-1.51-2.32-3.86-5.21-7.41-7.82-7.51-5.52-16.12-9.28-16.12-9.28,0,0,11.19,10.38,14.73,17.74,3,6.25,2.06,12.29-.99,16.54,5.06-.19,9.41-1.4,12.58-2.63Z"/>
  <path class="cls-12" d="M171.89,0C76.96,0,0,76.96,0,171.89s76.96,171.89,171.89,171.89,171.89-76.96,171.89-171.89S266.82,0,171.89,0ZM171.89,336.06c-90.67,0-164.17-73.5-164.17-164.17S81.22,7.72,171.89,7.72s164.17,73.5,164.17,164.17-73.5,164.17-164.17,164.17Z"/>
  <path class="cls-2" d="M171.89,16.15C85.88,16.15,16.15,85.88,16.15,171.89s69.73,155.74,155.74,155.74,155.74-69.73,155.74-155.74S257.91,16.15,171.89,16.15ZM171.89,324.27c-84.16,0-152.38-68.22-152.38-152.38S87.73,19.51,171.89,19.51s152.38,68.22,152.38,152.38-68.22,152.38-152.38,152.38Z"/>
</svg>