<?xml version="1.0" encoding="UTF-8"?>
<svg id="Layer_1" data-name="Layer 1" xmlns="http://www.w3.org/2000/svg" xmlns:xlink="http://www.w3.org/1999/xlink" viewBox="0 0 163.52 176.34">
  <defs>
    <style>
      .cls-1 {
        fill: #ec7b23;
      }

      .cls-2 {
        fill: url(#radial-gradient-5);
      }

      .cls-3 {
        fill: #a61e22;
      }

      .cls-4 {
        fill: url(#radial-gradient);
      }

      .cls-5 {
        fill: url(#radial-gradient-3);
      }

      .cls-6 {
        fill: url(#radial-gradient-2);
      }

      .cls-7 {
        fill: url(#radial-gradient-4);
      }

      .cls-8 {
        fill: url(#radial-gradient-6);
      }
    </style>
    <radialGradient id="radial-gradient" cx="81.66" cy="127.38" fx="81.66" fy="127.38" r="79.49" gradientUnits="userSpaceOnUse">
      <stop offset=".13" stop-color="#f68724"/>
      <stop offset=".17" stop-color="#ed7b23"/>
      <stop offset=".41" stop-color="#c34821"/>
      <stop offset=".59" stop-color="#a92820"/>
      <stop offset=".69" stop-color="#a01d20"/>
    </radialGradient>
    <radialGradient id="radial-gradient-2" cx="81.14" cy="30.84" fx="81.14" fy="30.84" r="176.6" xlink:href="#radial-gradient"/>
    <radialGradient id="radial-gradient-3" cx="87.57" cy="63.84" fx="87.57" fy="63.84" r="47.11" gradientUnits="userSpaceOnUse">
      <stop offset=".04" stop-color="#eb6d24"/>
      <stop offset="1" stop-color="#a61e22"/>
    </radialGradient>
    <radialGradient id="radial-gradient-4" cx="75.87" cy="61.48" fx="75.87" fy="61.48" r="89.38" xlink:href="#radial-gradient"/>
    <radialGradient id="radial-gradient-5" cx="133.97" cy="26.97" fx="133.97" fy="26.97" r="129.88" xlink:href="#radial-gradient"/>
    <radialGradient id="radial-gradient-6" cx="40.98" cy="39.74" fx="40.98" fy="39.74" r="108.82" xlink:href="#radial-gradient"/>
  </defs>
  <path class="cls-4" d="M61.88,163.38h40.55l6.9,12.96h-54.25l6.8-12.96ZM100.79,160.29l-6.9-12.96h-10.11v12.96h17ZM63.5,160.29h16.97v-12.96h-10.16l-6.8,12.96ZM92.32,144.38l-10.31-19.36-10.16,19.36h20.47ZM57.94,163.38h-14.69l-8.65,12.96h16.31l7.03-12.96ZM59.62,160.29l19.16-35.31c-5.96,2.3-11.78,2.84-11.78,2.84l-21.68,32.47h14.3ZM121.14,163.38h-14.37l7.09,12.96h15.57l-8.29-12.96ZM105.08,160.29h14.08l-27.79-43.44s-2.02,2.52-7.07,5.46l20.78,37.98Z"/>
  <path class="cls-6" d="M32.1,21.23C45.91,10.1,63.22,3.36,82.09,3.36s35.56,6.49,49.14,17.27c-.13,2.4-.5,5.59-1.46,9.08-12.75-11.43-29.32-18.47-47.67-18.47s-35.69,7.38-48.69,19.27c-.48-2.63-1-5.99-1.3-9.28ZM160.14,64.04c-1.26,4.75-3.6,8.6-5.55,11.2.68,4.16,1.06,8.42,1.06,12.74,0,28.2-15.11,51.79-37.85,63.88,1.26,2.03,2.82,4.53,4.2,6.67,24.94-13.5,41.52-39.55,41.52-70.56,0-8.26-1.18-16.3-3.38-23.94ZM46.54,152.11c-23.11-11.96-38.66-35.5-38.66-63.83,0-4.12.34-8.17.97-12.15-2.7-4.83-4.3-9.17-5.22-12.48-2.36,7.85-3.63,16.13-3.63,24.63,0,30.96,16.84,56.84,41.91,70.27,1.45-2.02,3.26-4.54,4.63-6.44Z"/>
  <path class="cls-1" d="M72.67,58.91c1.55-2.45,2.94-4.21,2.94-4.21,0,0-6.33,1.55-11.56-.74,1.67,2.63,5.24,4.58,8.62,4.95Z"/>
  <path class="cls-5" d="M100.42,56.03c-.86-1.05-1.9-2-3.05-2.84-3.42-.65-8.77-.04-13.81,2.62-6.41,3.39-9.42,12.96-3.39,19.51,6.04,6.55,13.55,7.66,12.66,18.85-.81,10.23-8.32,20.69-14.83,27.93,9.02-2.89,17.04-9.57,20.13-17.55,3.53-9.13,1.84-20.1-2.43-24.66-4.27-4.56-10.31-9.35-10.09-14.5.22-5.15,7.88-10.82,14.8-9.35Z"/>
  <path class="cls-7" d="M85.62,65.38c.22-5.15,7.88-10.82,14.8-9.35-5.15-6.33-16.49-9.06-22.75-6.33-6.26,2.72-12.15.74-14.21-3.9,1.62,9.35,12.15,8.91,12.15,8.91,0,0-5.45,6.92-6.85,12.37-1.4,5.45-2.65,10.9-.74,18.26,1.91,7.36,3.9,12.59,3.9,19.81s-3.98,12.22-9.35,15.98c-5.37,3.75-10.45,11.26-10.9,13.25,5.37-7.66,12.3-9.35,22.38-11.26,10.55-2,20.54-9.42,24.08-18.55,3.53-9.13,1.84-20.1-2.43-24.66-4.27-4.56-10.31-9.35-10.09-14.5ZM82.9,52.97c0-.87.81-1.58,1.8-1.58s1.8.71,1.8,1.58-.81,1.58-1.8,1.58-1.8-.71-1.8-1.58Z"/>
  <path class="cls-3" d="M81.1,76.27c1.01,1.55,2.31,3.29,3.86,4.72,3.75,3.46,5.82,7.8,4.79,17.23-.9,8.27-9.24,18.76-13.65,24.43.64-.16,1.28-.35,1.92-.55h0c6.51-7.24,14.02-17.7,14.83-27.93.84-10.63-5.89-12.16-11.74-17.9Z"/>
  <path class="cls-2" d="M97.4,76.28s4.42,3.31,6.11,11.34c1.69,8.03-1.84,17.52-2.58,18.77,5.74.52,22.68-1.03,29.52-9.57-5.96,3.39-16.71.88-19.81-1.33,10.75,2.36,20.76-1.62,28.94-6.85,8.17-5.23,15.39-18.85,16.05-28.13-5.52,10.6-20.62,20.39-38.58,22.16,15.54-3.61,31-13.92,36.67-27.76,5.67-13.84,2.21-27.98-2.21-33.21,2.21,11.26-3.02,21.57-9.35,30.04-6.33,8.47-17.6,15.09-22.6,18.04,11.41-9.35,23.56-19.73,24.81-37.48,1.25-17.74-8.03-27.98-11.78-32.32,4.2,8.17,3.9,15.46,2.14,25.7-1.77,10.23-9.2,23.63-15.61,31.73-6.41,8.1-21.72,18.85-21.72,18.85Z"/>
  <path class="cls-8" d="M32.76,97.11c7.58,5.74,14.95,9.65,25.92,9.42,5.33-.11,9.91-1.38,13.21-2.66-.22-6.57-2.06-11.62-3.86-18.54-.97-3.71-1.12-6.94-.87-9.93-6.02-3.01-19.76-11.14-28.81-26.08C26.5,29.75,26.21,9.5,30.77.07c-6.48,8.1-14.36,18.19-12.3,33.13,2.06,14.95,16.79,29.97,27.24,37.77-10.45-5.37-21.35-15.46-27.98-25.33-6.63-9.87-5.82-22.31-5.74-24.22-2.5,2.5-6.77,9.2-5.45,23.41,1.33,14.21,10.01,26.06,41.38,38.43-17.3-2.5-36.45-11.56-41.16-24.59,2.14,13.11,10.97,25.4,20.69,31.51s22.01,6.41,24.81,5.6c-3.39,2.43-16.57,2.5-19.51,1.33Z"/>
  <path class="cls-3" d="M119.2,70.31c-7.01,3.62-13.75,11.93-16.22,15.2.2.66.38,1.36.54,2.1,1.69,8.03-1.84,17.52-2.58,18.77.5.04,1.09.07,1.74.08,2.61-9.39,8.17-24.65,16.52-36.16Z"/>
  <path class="cls-3" d="M71.89,103.88c-.17-5.24-1.38-9.53-2.78-14.56-1.51-2.32-3.86-5.21-7.41-7.82-7.51-5.52-16.12-9.28-16.12-9.28,0,0,11.19,10.38,14.73,17.74,3,6.25,2.06,12.29-.99,16.54,5.06-.19,9.41-1.4,12.58-2.63Z"/>
</svg>