<?xml version="1.0" encoding="UTF-8"?>
<svg id="Layer_1" data-name="Layer 1" xmlns="http://www.w3.org/2000/svg" xmlns:xlink="http://www.w3.org/1999/xlink" viewBox="0 0 935.63 325.07">
  <defs>
    <style>
      .cls-1 {
        fill: url(#New_Gradient_Swatch_1-4);
      }

      .cls-2 {
        fill: #ec7b23;
      }

      .cls-3 {
        fill: url(#New_Gradient_Swatch_1-3);
      }

      .cls-4 {
        fill: #a01d20;
      }

      .cls-5 {
        fill: url(#radial-gradient-5);
      }

      .cls-6 {
        fill: #a61e22;
      }

      .cls-7 {
        fill: url(#radial-gradient);
      }

      .cls-8 {
        fill: url(#radial-gradient-3);
      }

      .cls-9 {
        fill: url(#New_Gradient_Swatch_1-6);
      }

      .cls-10 {
        fill: url(#radial-gradient-2);
      }

      .cls-11 {
        fill: url(#New_Gradient_Swatch_1-2);
      }

      .cls-12 {
        fill: url(#radial-gradient-4);
      }

      .cls-13 {
        fill: url(#New_Gradient_Swatch_1-5);
      }

      .cls-14 {
        fill: url(#radial-gradient-6);
      }

      .cls-15 {
        fill: url(#New_Gradient_Swatch_1);
      }
    </style>
    <radialGradient id="New_Gradient_Swatch_1" data-name="New Gradient Swatch 1" cx="639.03" cy="139.35" fx="639.03" fy="139.35" r="362.44" gradientUnits="userSpaceOnUse">
      <stop offset=".13" stop-color="#f68724"/>
      <stop offset=".19" stop-color="#ed7b23"/>
      <stop offset=".52" stop-color="#c34821"/>
      <stop offset=".78" stop-color="#a92820"/>
      <stop offset=".91" stop-color="#a01d20"/>
    </radialGradient>
    <radialGradient id="New_Gradient_Swatch_1-2" data-name="New Gradient Swatch 1" cx="639.03" fx="639.03" r="362.44" xlink:href="#New_Gradient_Swatch_1"/>
    <radialGradient id="New_Gradient_Swatch_1-3" data-name="New Gradient Swatch 1" cx="639.03" fx="639.03" r="362.44" xlink:href="#New_Gradient_Swatch_1"/>
    <radialGradient id="New_Gradient_Swatch_1-4" data-name="New Gradient Swatch 1" cx="639.03" cy="139.35" fx="639.03" fy="139.35" r="362.44" xlink:href="#New_Gradient_Swatch_1"/>
    <radialGradient id="New_Gradient_Swatch_1-5" data-name="New Gradient Swatch 1" cx="639.03" fx="639.03" r="362.44" xlink:href="#New_Gradient_Swatch_1"/>
    <radialGradient id="New_Gradient_Swatch_1-6" data-name="New Gradient Swatch 1" cx="639.03" fx="639.03" r="362.44" xlink:href="#New_Gradient_Swatch_1"/>
    <radialGradient id="radial-gradient" cx="150.53" cy="234.82" fx="150.53" fy="234.82" r="146.54" gradientUnits="userSpaceOnUse">
      <stop offset=".13" stop-color="#f68724"/>
      <stop offset=".17" stop-color="#ed7b23"/>
      <stop offset=".41" stop-color="#c34821"/>
      <stop offset=".59" stop-color="#a92820"/>
      <stop offset=".69" stop-color="#a01d20"/>
    </radialGradient>
    <radialGradient id="radial-gradient-2" cx="149.58" cy="56.85" fx="149.58" fy="56.85" r="325.57" xlink:href="#radial-gradient"/>
    <radialGradient id="radial-gradient-3" cx="161.43" cy="117.69" fx="161.43" fy="117.69" r="86.85" gradientUnits="userSpaceOnUse">
      <stop offset=".04" stop-color="#eb6d24"/>
      <stop offset="1" stop-color="#a61e22"/>
    </radialGradient>
    <radialGradient id="radial-gradient-4" cx="139.86" cy="113.34" fx="139.86" fy="113.34" r="164.77" xlink:href="#radial-gradient"/>
    <radialGradient id="radial-gradient-5" cx="246.97" cy="49.73" fx="246.97" fy="49.73" r="239.43" xlink:href="#radial-gradient"/>
    <radialGradient id="radial-gradient-6" cx="75.54" cy="73.26" fx="75.54" fy="73.26" r="200.61" xlink:href="#radial-gradient"/>
  </defs>
  <polygon class="cls-15" points="508.4 170.67 477.74 118.6 449.55 118.6 493.97 193.94 493.97 235.8 520.53 235.8 520.53 194.27 565.12 118.6 539.06 118.6 508.4 170.67"/>
  <path class="cls-11" d="M733.34,118.6l-51.87,117.2h27.6l10.31-25.11h54.03l10.31,25.11h28.26l-52.04-117.2h-26.6ZM728.02,190.09l18.45-44.87,18.46,44.87h-36.91Z"/>
  <path class="cls-3" d="M673.78,161.13c0-26.28-18.88-42.53-49.07-42.53h-48.91v117.2h26.15v-32.65h24.05l21.79,32.65h28.08l-25.34-37.67c14.69-6.53,23.24-19.42,23.24-37ZM623.26,181.55h-21.31v-40.85h21.31c15.98,0,24.05,7.54,24.05,20.43s-8.07,20.42-24.05,20.42Z"/>
  <path class="cls-1" d="M887.41,169.74s.01.04.01.06c0,.03,0,.06,0,.08-.02.2-.05.4-.08.61-.01.07-.03.14-.05.2-.01.04-.02.07-.04.11,0,.02-.01.03-.02.05-.11.44-.29.86-.49,1.27,0,0,0,0-.01.01-.01.02,0,.04-.02.06-.23.34-.42.71-.64,1.05-.14.21-.3.4-.46.59-.06.07-.12.14-.19.21-.13.13-.26.26-.37.4-.02.02-.05.03-.08.05-.05.07-.11.12-.17.18-.17.2-.34.38-.51.58-.39.47-.87.88-1.31,1.31-.44.42-.89.83-1.34,1.25-.02.03-.06.06-.09.08,0,0-.02.02-.03.02-.03.03-.06.06-.1.09-.03.03-.05.05-.08.08-.03.04-.07.08-.11.12-.04.05-.09.09-.13.14-.31.31-.61.62-.91.94-.09.12-.21.21-.34.3,0,0,0,0,0,0-.08.1-.17.18-.27.26-.03.03-.06.06-.09.09-.19.25-.38.5-.6.71-.56.54-1.14,1.04-1.67,1.61-.08.1-.18.18-.28.26-.08.11-.19.2-.29.29,0,0,0,0,0,0-.08.11-.17.21-.27.31-.1.14-.19.28-.31.4-.13.14-.28.25-.43.37-.03.02-.05.04-.08.06-.06.07-.14.12-.2.19-.03.03-.06.06-.09.09-.03.03-.05.07-.09.1-.06.08-.11.17-.18.24-.11.13-.26.23-.4.33-.06.09-.14.17-.22.24-.02.03-.04.06-.07.09-.08.11-.1.15-.17.21-.1.11-.23.19-.35.27-.09.11-.15.23-.27.33-.2.17-.38.36-.57.54-.39.37-.77.73-1.15,1.11-.3.3-.62.6-.95.88-.16.14-.32.26-.49.37l34,46.85h31.31l-48.22-66.05Z"/>
  <path class="cls-13" d="M850.08,118.6h-30.81l43.14,59.44c.09-.11.16-.23.26-.34.17-.18.36-.34.56-.49.46-.37.86-.8,1.27-1.24.23-.24.46-.48.7-.7.24-.22.44-.47.68-.69.06-.06.14-.09.21-.12.1-.14.24-.25.39-.35.07-.13.14-.26.24-.36.42-.42.82-.86,1.25-1.27.23-.23.49-.43.75-.63.04-.06.1-.1.15-.15.04-.04.07-.08.11-.12.01-.02.03-.05.04-.07.16-.17.28-.37.46-.52.1-.09.22-.16.33-.24.05-.07.13-.12.2-.18.07-.09.14-.17.23-.25.08-.11.22-.3.27-.34.07-.07.15-.12.22-.18.02-.02.07-.05.1-.08.04-.04.09-.08.13-.11.07-.09.16-.16.25-.24.04-.05.08-.1.13-.15,0,0,0-.01.01-.02,0,0,0,0,0,0,.51-.65,1.04-1.27,1.63-1.84.35-.34.76-.63,1.16-.92.08-.11.2-.18.31-.26.02-.01.03-.03.04-.04.11-.18.24-.33.41-.46.06-.11.12-.23.21-.32.64-.64,1.34-1.21,2.09-1.71.4-.27.85-.5,1.32-.64.06-.02.12-.01.18-.03,0,0,0,0,.01-.01.11-.06.24-.06.36-.1.14-.07.31-.1.48-.13.05,0,.09-.04.14-.04,0,0,.02,0,.03,0,.08,0,.14-.05.23-.05.03,0,.05,0,.07.01.21-.08.44-.14.71-.14.1,0,.17.04.27.05.01,0,.02,0,.04,0,.05,0,.09.02.14.03.06-.02.11-.04.18-.04.18,0,.34.06.51.11.02,0,.03,0,.05,0,.05,0,.09.04.13.04.02,0,.05,0,.07.02,0,0,.01,0,.02.01.08.02.15.04.23.07l-32.28-44.22Z"/>
  <path class="cls-9" d="M397.63,118.6h-50.73v117.2h27.12v-32.31h23.61c31.31,0,50.9-16.24,50.9-42.36s-19.59-42.53-50.9-42.53ZM396.12,181.38h-22.1v-40.68h22.1c16.58,0,24.95,7.54,24.95,20.43s-8.37,20.26-24.95,20.26Z"/>
  <path class="cls-4" d="M895.21,154.81c-5.97-5.97-15.66-5.97-21.63,0l-21.32,21.32c-5.97,5.97-5.97,15.66,0,21.63,5.97,5.97,15.66,5.97,21.63,0l21.32-21.32c5.97-5.97,5.97-15.66,0-21.63ZM887.42,169.88s0,.04,0,.06c-.1.98-.49,1.91-1.02,2.77-.1.18-.21.35-.32.53-.14.21-.29.4-.45.59-.04.04-.05.1-.1.14l-.4.4s-.05.05-.07.08c0,0-.01,0-.01,0l-.11.11s-.02.02-.03.03l-.26.26c-.12.12-.23.26-.34.39-.39.47-.87.88-1.31,1.31-.25.24-.5.47-.76.7l-2.07,2.07s-.08.08-.12.12l-.05.05c-.06.08-.13.14-.21.21-.01.01-.02.02-.03.03l-.6.6c-.09.1-.16.21-.26.31-.42.41-.85.81-1.27,1.22l-.43.43s-.08.08-.12.12l-.1.1c-.08.11-.19.2-.29.29l-.03.03s-.05.05-.07.07c0,0,0,0,0,0-.06.08-.13.14-.21.21l-.02.02c-.1.13-.19.27-.3.38-.13.14-.28.25-.43.37-.02.02-.05.04-.07.06h-.01c-.04.06-.08.09-.12.13-.03.03-.05.05-.08.08l-.03.03s-.08.08-.12.12l-.05.05c-.05.07-.1.15-.16.21-.08.1-.19.17-.3.24l-.13.13c-.06.07-.13.13-.19.2-.02.03-.04.06-.07.09-.08.11-.1.15-.17.21-.09.09-.2.16-.31.24l-.09.09c-.08.09-.13.19-.22.27-.2.17-.38.36-.57.54-.19.18-.37.36-.56.54l-.94.94c-.14.14-.3.24-.44.36-.05.05-.1.1-.16.15-.08.07-.17.12-.25.19-.09.06-.17.14-.26.19-.11.07-.23.13-.35.18-2.55,1.44-5.84,1.1-8.01-1.07-2.62-2.62-2.62-6.86,0-9.48l.24-.24s0-.02.01-.03c.13-.23.31-.43.48-.63.17-.18.36-.34.56-.49.46-.37.86-.8,1.27-1.24.23-.24.46-.48.7-.7.24-.22.44-.47.68-.69.05-.05.12-.06.17-.1l.05-.05c.05-.06.1-.1.16-.16l.32-.32c.05-.07.08-.15.14-.21.42-.42.82-.86,1.25-1.27.18-.18.39-.33.58-.49l.21-.21s0,0,0,0l.06-.06s.06-.06.09-.09l.1-.1s0-.01,0-.01c.16-.17.28-.37.46-.52.08-.07.17-.12.26-.19l.09-.09s.06-.06.09-.09l.14-.14s.06-.06.09-.09l.15-.15c.08-.11.17-.23.21-.26.07-.07.15-.12.22-.18,0,0,.02-.02.03-.02l.26-.26s0,0,0,0l.11-.11s.06-.06.09-.09l.34-.34c.46-.57.92-1.12,1.44-1.63.38-.37.79-.72,1.23-1.04l.42-.42s.05-.05.07-.07l.29-.29c.04-.06.07-.13.12-.18.1-.1.23-.18.34-.28l.59-.59c1.1-1.1,2.48-1.66,3.91-1.82,0,0,0,0,0,0,0,0,0,0,0,0,.1-.01.19-.02.29-.03.16-.04.3-.1.49-.1.1,0,.16.04.25.05.01,0,.02,0,.03,0,0,0,.01,0,.02,0,0,0,.01,0,.02,0,.09,0,.17-.01.26,0,.01,0,.03,0,.04,0,.04,0,.06.02.1.02.12.01.23.08.35.09.04,0,.07-.01.11,0,.23.01.45.09.65.21,1.07.29,2.11.76,2.95,1.6,1.46,1.46,2.08,3.43,1.9,5.34,0,.02,0,.04,0,.05Z"/>
  <path class="cls-4" d="M860.99,210.03l-12.38,12.38c-4.84,4.84-12.69,4.84-17.53,0-4.84-4.84-4.84-12.69,0-17.53l7.72-7.72v-13.62l-16.44,16.44c-8.6,8.6-8.6,22.55,0,31.16h0c8.6,8.6,22.55,8.6,31.16,0l21.11-21.11h-13.62Z"/>
  <path class="cls-4" d="M925.05,123.8h0c-8.6-8.6-22.55-8.6-31.16,0l-18.49,18.49h13.62l9.77-9.77c4.84-4.84,12.69-4.84,17.53,0,4.84,4.84,4.84,12.69,0,17.53l-6.85,6.85v13.62l15.57-15.57c8.6-8.6,8.6-22.55,0-31.16Z"/>
  <path class="cls-7" d="M114.07,301.18h74.76l12.71,23.89h-100.01l12.54-23.89ZM185.8,295.48l-12.71-23.89h-18.63v23.89h31.34ZM117.07,295.48h31.28v-23.89h-18.74l-12.54,23.89ZM170.19,266.16l-19-35.7-18.74,35.7h37.74ZM106.82,301.18h-27.08l-15.95,23.89h30.07l12.96-23.89ZM109.91,295.48l35.31-65.09c-10.98,4.23-21.72,5.23-21.72,5.23l-39.96,59.86h26.37ZM223.32,301.18h-26.49l13.07,23.89h28.71l-15.28-23.89ZM193.71,295.48h25.96l-51.24-80.08s-3.72,4.64-13.04,10.06l38.31,70.02Z"/>
  <path class="cls-10" d="M59.18,39.13C84.64,18.62,116.55,6.2,151.33,6.2s65.55,11.96,90.58,31.83c-.23,4.42-.92,10.3-2.7,16.73-23.51-21.07-54.06-34.04-87.88-34.04s-65.8,13.6-89.76,35.52c-.88-4.85-1.85-11.04-2.39-17.1ZM295.22,118.06c-2.33,8.75-6.63,15.86-10.24,20.64,1.26,7.68,1.95,15.52,1.95,23.49,0,51.99-27.86,95.47-69.78,117.77,2.32,3.75,5.2,8.35,7.75,12.3,45.98-24.89,76.55-72.91,76.55-130.07,0-15.23-2.18-30.06-6.23-44.13ZM85.79,280.4c-42.6-22.05-71.27-65.44-71.27-117.66,0-7.59.63-15.07,1.8-22.4-4.98-8.9-7.93-16.9-9.62-23.01-4.35,14.47-6.69,29.74-6.69,45.4,0,57.07,31.04,104.78,77.26,129.54,2.66-3.72,6-8.37,8.53-11.88Z"/>
  <path class="cls-2" d="M133.96,108.61c2.87-4.51,5.42-7.76,5.42-7.76,0,0-11.67,2.85-21.31-1.36,3.09,4.85,9.67,8.45,15.89,9.12Z"/>
  <path class="cls-8" d="M185.13,103.29c-1.58-1.94-3.5-3.68-5.62-5.24-6.3-1.2-16.17-.08-25.46,4.84-11.81,6.24-17.37,23.89-6.24,35.97,11.13,12.08,24.97,14.12,23.35,34.75-1.49,18.86-15.33,38.15-27.34,51.49,16.63-5.33,31.42-17.64,37.11-32.35,6.52-16.83,3.39-37.05-4.48-45.47-7.87-8.42-19-17.24-18.59-26.74.41-9.5,14.52-19.95,27.28-17.24Z"/>
  <path class="cls-12" d="M157.85,120.53c.41-9.5,14.52-19.95,27.28-17.24-9.5-11.67-30.4-16.69-41.94-11.67-11.54,5.02-22.4,1.36-26.2-7.19,2.99,17.24,22.4,16.42,22.4,16.42,0,0-10.04,12.76-12.62,22.8-2.58,10.04-4.89,20.09-1.36,33.66,3.53,13.57,7.19,23.21,7.19,36.51s-7.33,22.53-17.24,29.45c-9.91,6.92-19.27,20.77-20.09,24.43,9.91-14.12,22.67-17.24,41.26-20.77,19.45-3.69,37.87-17.37,44.38-34.2,6.51-16.83,3.39-37.05-4.48-45.47-7.87-8.42-19-17.24-18.6-26.74ZM152.82,97.66c0-1.61,1.49-2.92,3.33-2.92s3.33,1.31,3.33,2.92-1.49,2.92-3.33,2.92-3.33-1.31-3.33-2.92Z"/>
  <path class="cls-6" d="M149.5,140.6c1.85,2.86,4.26,6.07,7.12,8.71,6.92,6.38,10.72,14.39,8.82,31.76-1.67,15.25-17.03,34.57-25.17,45.04,1.18-.3,2.36-.64,3.53-1.02h0c12.01-13.34,25.85-32.63,27.34-51.49,1.55-19.59-10.86-22.42-21.65-33Z"/>
  <path class="cls-5" d="M179.56,140.62s8.14,6.11,11.27,20.9c3.12,14.79-3.39,32.3-4.75,34.61,10.59.95,41.8-1.9,54.43-17.64-10.99,6.24-30.81,1.63-36.51-2.44,19.82,4.34,38.28-2.99,53.34-12.62,15.07-9.64,28.37-34.75,29.59-51.85-10.18,19.54-38,37.6-71.12,40.85,28.64-6.65,57.14-25.65,67.59-51.17,10.45-25.52,4.07-51.58-4.07-61.21,4.07,20.77-5.56,39.77-17.24,55.38-11.67,15.61-32.44,27.82-41.67,33.25,21.04-17.24,43.43-36.38,45.74-69.09,2.31-32.71-14.79-51.58-21.72-59.59,7.74,15.07,7.19,28.5,3.94,47.37-3.26,18.87-16.97,43.57-28.77,58.5-11.81,14.93-40.04,34.75-40.04,34.75Z"/>
  <path class="cls-14" d="M60.39,179.03c13.98,10.59,27.55,17.78,47.78,17.37,9.83-.2,18.26-2.55,24.35-4.9-.4-12.11-3.8-21.43-7.11-34.19-1.78-6.85-2.07-12.8-1.6-18.3-11.09-5.56-36.43-20.53-53.1-48.07C48.86,54.83,48.31,17.51,56.73.14c-11.94,14.93-26.47,33.53-22.67,61.08,3.8,27.55,30.95,55.24,50.22,69.63-19.27-9.91-39.36-28.5-51.58-46.69-12.22-18.19-10.72-41.13-10.59-44.65-4.61,4.61-12.49,16.97-10.04,43.16,2.44,26.2,18.46,48.05,76.28,70.85-31.9-4.61-67.19-21.31-75.87-45.33,3.94,24.16,20.22,46.83,38.14,58.09,17.92,11.27,40.58,11.81,45.74,10.32-6.24,4.48-30.54,4.61-35.97,2.44Z"/>
  <path class="cls-6" d="M219.74,129.62c-12.93,6.68-25.34,21.99-29.91,28.02.37,1.23.71,2.5,1,3.87,3.12,14.79-3.39,32.3-4.75,34.61.92.08,2.01.13,3.21.15,4.81-17.31,15.07-45.44,30.45-66.66Z"/>
  <path class="cls-6" d="M132.52,191.5c-.32-9.66-2.55-17.57-5.12-26.83-2.78-4.28-7.12-9.6-13.67-14.41-13.84-10.18-29.72-17.1-29.72-17.1,0,0,20.63,19.14,27.15,32.71,5.53,11.53,3.81,22.65-1.82,30.48,9.33-.35,17.34-2.59,23.19-4.85Z"/>
</svg>